<svg xmlns="http://www.w3.org/2000/svg" viewBox="0 0 297.63 90.29"><defs><style>.cls-1{isolation:isolate;}.cls-2{fill:#c4d82e;}.cls-2,.cls-3,.cls-5,.cls-6{mix-blend-mode:multiply;}.cls-3{fill:#62bb46;}.cls-4{fill:#0088ce;}.cls-5,.cls-6,.cls-7{fill:#41463f;}.cls-5{opacity:0.95;}.cls-6{opacity:0.7;}</style></defs><g class="cls-1"><g id="Layer_1" data-name="Layer 1"><polygon class="cls-2" points="18.58 24.6 34.72 44.8 34.36 0 18.58 24.6"/><polygon class="cls-2" points="22.3 88.88 35.88 51.98 35.82 88.97 22.3 88.88"/><polygon class="cls-3" points="45.04 8.22 34.72 44.8 0 75.53 45.04 8.22"/><path class="cls-4" d="M57.64,70.05,80.78,40.61l23.43-12.1L74.15,68.68l28,42.5H83.68Z" transform="translate(-20.19 -22.37)"/><polygon class="cls-5" points="37.45 47.68 84.03 6.15 22.65 88.14 37.45 47.68"/><polygon class="cls-6" points="37.45 47.68 81.97 88.81 48.41 37.89 37.45 47.68"/><polygon class="cls-7" points="108.35 60.06 130.95 30.72 122.92 30.72 99.46 60.06 99.46 30.61 91.7 30.61 91.7 88.52 99.46 88.52 99.46 61.17 123.22 88.52 132.68 88.52 108.35 60.06"/><path class="cls-7" d="M169.57,71.53c-10.8,0-18.95,8.84-18.95,20.57s8.46,20.56,19.68,20.56c6.63,0,11.63-2.27,16.19-7.37l.49-.54-4.6-4.12-.48.51a15.06,15.06,0,0,1-11.45,5.14c-6.59,0-11.54-4.55-12.54-11.4h29.94l.08-.65a15.44,15.44,0,0,0,.08-1.84C188,79.91,180.6,71.53,169.57,71.53Zm-.15,6.24c7.29,0,10.59,5.78,11.31,11.46H157.91C158.88,82.44,163.53,77.77,169.42,77.77Z" transform="translate(-20.19 -22.37)"/><rect class="cls-7" x="175.25" y="30.69" width="7.12" height="57.84"/><rect class="cls-7" x="191.5" y="30.69" width="7.12" height="57.84"/><path class="cls-7" d="M244.53,71.53c-10.8,0-18.95,8.84-18.95,20.57s8.46,20.56,19.68,20.56c6.63,0,11.62-2.27,16.19-7.37l.49-.54-4.6-4.12-.49.51a15,15,0,0,1-11.44,5.14c-6.59,0-11.55-4.55-12.55-11.4h29.95l.07-.65a15.44,15.44,0,0,0,.08-1.84C263,79.91,255.55,71.53,244.53,71.53Zm-.15,6.24c7.29,0,10.59,5.78,11.31,11.46H232.86C233.84,82.44,238.49,77.77,244.38,77.77Z" transform="translate(-20.19 -22.37)"/><polygon class="cls-7" points="269.01 49.14 259.93 49.14 259.93 30.69 252.81 30.69 252.81 49.14 244.56 49.14 244.56 55.59 252.81 55.59 252.81 88.52 259.93 88.52 259.93 55.59 269.01 55.59 269.01 49.14"/><polygon class="cls-7" points="297.63 49.14 288.55 49.14 288.55 30.69 281.43 30.69 281.43 49.14 273.17 49.14 273.17 55.59 281.43 55.59 281.43 88.52 288.55 88.52 288.55 55.59 297.63 55.59 297.63 49.14"/></g></g></svg>